# xmcd
#
# Track frame offsets: 
#        150
#        18898
#        35081
#        53974
#        68944
#        83927
#        115496
#        133701
#        150424
#        167382
#        178625
#        203358
#
# Disc length: 3064 seconds
#
# Revision: 0
# Processed by: cddbd v1.5.1PL0 Copyright (c) Steve Scherf et al.
# Submitted via: ExactAudioCopy v0.95a5
#
DISCID=970bf60c
DTITLE=X-Mas Balls - She Left Me For Randolph
DYEAR=2004
DGENRE=Christmas/Holiday
TTITLE0=She Left Me For Randolph
TTITLE1=You Lose Mr. Scrooge
TTITLE2=If I Was An Angel
TTITLE3=Cajun Daze Of Christmas
TTITLE4=Noel The Christmas Mouse
TTITLE5=Santa's Mailbox
TTITLE6=Hillbilly Christmas
TTITLE7=(All I Want For Christmas Is) A Soldier Coming Home
TTITLE8=King Of Kings
TTITLE9=Foggy Xmas Breakdown
TTITLE10=You're Working For Me
TTITLE11=She Left Me For Randolph (Instrumental)
EXTD=
EXTT0=
EXTT1=
EXTT2=
EXTT3=
EXTT4=
EXTT5=
EXTT6=
EXTT7=
EXTT8=
EXTT9=
EXTT10=
EXTT11=
PLAYORDER=
